<?xml version="1.0" encoding="utf-8"?>
<!-- Uploaded to: SVG Repo, www.svgrepo.com, Generator: SVG Repo Mixer Tools -->
<svg fill="#000000" version="1.1" id="Layer_1" xmlns="http://www.w3.org/2000/svg" xmlns:xlink="http://www.w3.org/1999/xlink" 
	 width="800px" height="800px" viewBox="0 0 256 182" enable-background="new 0 0 256 182" xml:space="preserve">
<path d="M128,104v61h19.92c0.35-0.08,0.62-0.36,0.69-0.7c1.22-6.95,7.27-12.24,14.58-12.24s13.36,5.29,14.57,12.24
	c0.08,0.44,0.8,0.7,1.24,0.7h10v-61H128z M134,44.39V5h-22v19.42L86.78,1.37L2.06,77.25l12.88,14.52L28,79.97V180h16v-26h10v8h6v-8
	h10v26h9v-26h10v8h6v-8h10v26h40v-9h-23V98h23V80.7l12.62,11.8l12.99-14.16L134,44.39z M105,145H79v-26h10v8h6v-8h10V145z M253,157
	h-2v-11c0-3.55-2.41-7-6-7h-16c-0.24,0-0.98-0.38-1.14-0.54l-17.44-18.81c-0.8-0.81-2.25-1.61-3.42-1.65h-14v47h25
	c0.44,0,0.7-0.3,0.78-0.7c1.21-6.95,7.27-12.24,14.57-12.24c7.31,0,13.37,5.29,14.58,12.24c0.08,0.44,0.63,0.7,1.07,0.7h1
	c2.3,0,4-1.74,4-4v-3C254,157.56,253.48,157,253,157z M219.75,139.31h-21.34c-0.49,0-0.89-0.41-0.89-0.89v-14.37
	c0-0.49,0.4-0.89,0.89-0.89h8.34c0.24,0,0.48,0.12,0.69,0.28l13,14.33C220.92,138.38,220.52,139.31,219.75,139.31z M233.35,155.86
	c-6.13,0-11.1,4.97-11.1,11.1c0,6.14,4.97,11.1,11.1,11.1c6.14,0,11.11-4.96,11.11-11.1C244.46,160.83,239.49,155.86,233.35,155.86z
	 M233.35,171.21c-2.33,0-4.25-1.92-4.25-4.25c0-2.33,1.92-4.25,4.25-4.25c2.34,0,4.26,1.92,4.26,4.25
	C237.61,169.29,235.69,171.21,233.35,171.21z M163.19,155.86c-6.14,0-11.1,4.97-11.1,11.1c0,6.14,4.96,11.1,11.1,11.1
	s11.1-4.96,11.1-11.1C174.29,160.83,169.33,155.86,163.19,155.86z M163.19,171.21c-2.33,0-4.25-1.92-4.25-4.25
	c0-2.33,1.92-4.25,4.25-4.25s4.25,1.92,4.25,4.25C167.44,169.29,165.52,171.21,163.19,171.21z"/>
</svg>